/* XPM */
static char * ws48_xpm[] = {
"48 48 242 2",
"  	c None",
". 	c #4A474B",
"+ 	c #00001B",
"@ 	c #555B89",
"# 	c #121120",
"$ 	c #2F2E46",
"% 	c #090925",
"& 	c #2C251B",
"* 	c #5C5A56",
"= 	c #979598",
"- 	c #A3A6B5",
"; 	c #3B364B",
"> 	c #16130D",
", 	c #A9A7A6",
"' 	c #C6C7C9",
") 	c #D9D7D8",
"! 	c #E5E8F2",
"~ 	c #7E7F8A",
"{ 	c #241B14",
"] 	c #857B78",
"^ 	c #BBBAB9",
"/ 	c #DBE3EE",
"( 	c #EAF5FD",
"_ 	c #AEB6C7",
": 	c #495166",
"< 	c #777683",
"[ 	c #69666A",
"} 	c #1E1A18",
"| 	c #85817E",
"1 	c #C4C2BB",
"2 	c #EEF0ED",
"3 	c #EDF3F3",
"4 	c #E4F3FE",
"5 	c #343D5B",
"6 	c #D5D6FA",
"7 	c #BAB7C2",
"8 	c #322D2C",
"9 	c #6B6558",
"0 	c #DAD0CF",
"a 	c #B7C4DC",
"b 	c #343858",
"c 	c #8994AA",
"d 	c #D5E1ED",
"e 	c #9898A8",
"f 	c #383534",
"g 	c #B3AAA6",
"h 	c #D1CDC8",
"i 	c #F1F5F7",
"j 	c #8588A6",
"k 	c #DDEAF5",
"l 	c #7D7878",
"m 	c #DEE0DD",
"n 	c #F2F8FC",
"o 	c #ECF8FD",
"p 	c #34425F",
"q 	c #D4E5FD",
"r 	c #DBEBFD",
"s 	c #E3EAEC",
"t 	c #221E1F",
"u 	c #F2F1ED",
"v 	c #DCEDFF",
"w 	c #67748B",
"x 	c #75839D",
"y 	c #57637E",
"z 	c #544E49",
"A 	c #CCC4C2",
"B 	c #E2ECFD",
"C 	c #39446A",
"D 	c #8B7D74",
"E 	c #E3DEE5",
"F 	c #505B79",
"G 	c #68769A",
"H 	c #E1EBF6",
"I 	c #BDC2CB",
"J 	c #20180B",
"K 	c #A79A8C",
"L 	c #CCC5BD",
"M 	c #E9E9E8",
"N 	c #3A4163",
"O 	c #7177A7",
"P 	c #333B64",
"Q 	c #2C355A",
"R 	c #DBDBDF",
"S 	c #262320",
"T 	c #C4BBAB",
"U 	c #C9C0AF",
"V 	c #E8E5DC",
"W 	c #333B6C",
"X 	c #737CAB",
"Y 	c #344173",
"Z 	c #C0C6EA",
"` 	c #BCB6A9",
" .	c #766D67",
"..	c #3A3017",
"+.	c #D6C9AD",
"@.	c #7B83A7",
"#.	c #A4AADA",
"$.	c #C6CCF8",
"%.	c #9C9C9D",
"&.	c #4C4538",
"*.	c #DED0B1",
"=.	c #CAB99E",
"-.	c #E3DFD4",
";.	c #424A7C",
">.	c #3B4373",
",.	c #D6D9E2",
"'.	c #A69E9A",
").	c #5C5334",
"!.	c #E7D7B4",
"~.	c #D9CBB7",
"{.	c #A7B6D8",
"].	c #838BB2",
"^.	c #D6E9FC",
"/.	c #8C837C",
"(.	c #746B4E",
"_.	c #D2BC9D",
":.	c #F5EBF3",
"<.	c #C9C9DB",
"[.	c #45527D",
"}.	c #59668C",
"|.	c #BCBCC3",
"1.	c #B19A92",
"2.	c #68614E",
"3.	c #C4B69D",
"4.	c #8C766B",
"5.	c #C6B6C3",
"6.	c #393F76",
"7.	c #BCC7F8",
"8.	c #D4DCFF",
"9.	c #868DC3",
"0.	c #4C5586",
"a.	c #5F6F90",
"b.	c #D7E4F4",
"c.	c #D0D3DE",
"d.	c #A39A94",
"e.	c #574B31",
"f.	c #C6B9A7",
"g.	c #4A4A6A",
"h.	c #353E72",
"i.	c #828BBE",
"j.	c #333C74",
"k.	c #988F8A",
"l.	c #170D08",
"m.	c #BBB6B7",
"n.	c #312E43",
"o.	c #DADFFF",
"p.	c #414577",
"q.	c #49517E",
"r.	c #434876",
"s.	c #626A99",
"t.	c #A9B9E6",
"u.	c #434D82",
"v.	c #596496",
"w.	c #3C457B",
"x.	c #B5C8EA",
"y.	c #AAA19C",
"z.	c #3A3329",
"A.	c #C4BEB4",
"B.	c #B5BFD7",
"C.	c #8893C9",
"D.	c #6975A4",
"E.	c #525C92",
"F.	c #59524B",
"G.	c #3C4874",
"H.	c #666EA6",
"I.	c #969DD4",
"J.	c #4B363F",
"K.	c #977970",
"L.	c #7786AF",
"M.	c #99A6CA",
"N.	c #2C356B",
"O.	c #968C96",
"P.	c #B49883",
"Q.	c #776C58",
"R.	c #B4CAE7",
"S.	c #3D4A7C",
"T.	c #767FB0",
"U.	c #CDE2FE",
"V.	c #563C47",
"W.	c #634336",
"X.	c #938569",
"Y.	c #C5E0FD",
"Z.	c #CCDEFF",
"`.	c #9BA9D6",
" +	c #493F5A",
".+	c #B1957C",
"++	c #1B1202",
"@+	c #C4DCFC",
"#+	c #C5DAF4",
"$+	c #6F5F62",
"%+	c #A48E79",
"&+	c #9A8676",
"*+	c #485586",
"=+	c #BDC6FC",
"-+	c #C9D3E5",
";+	c #978376",
">+	c #151111",
",+	c #C6D5FF",
"'+	c #2F3C6B",
")+	c #B9B5B5",
"!+	c #858387",
"~+	c #343C79",
"{+	c #7B85B7",
"]+	c #515791",
"^+	c #5A729E",
"/+	c #C7D2E9",
"(+	c #C2CDE5",
"_+	c #9DB7DB",
":+	c #929BC2",
"<+	c #8CA2C8",
"[+	c #A5AEE5",
"}+	c #857D86",
"|+	c #2C3567",
"1+	c #B3B1C6",
"2+	c #B8D5F5",
"3+	c #8A94D1",
"4+	c #B9D2EC",
"5+	c #26284E",
"6+	c #86838A",
"7+	c #5B5758",
"8+	c #B2CCF3",
"9+	c #324977",
"0+	c #4E6790",
"a+	c #4C638D",
"b+	c #9DBDE4",
"c+	c #2D3B71",
"d+	c #575666",
"e+	c #241E20",
"f+	c #AECBF0",
"g+	c #253A65",
"h+	c #AAC5EC",
"i+	c #86899A",
"j+	c #7F96C0",
"k+	c #1E355F",
"l+	c #A6C5E9",
"m+	c #A4C3EB",
"n+	c #A4BBDC",
"o+	c #7C7886",
"p+	c #9AA1B3",
"q+	c #9DACC5",
"r+	c #A7ABC4",
"s+	c #262336",
"                                                                                            + @ ",
"                                                                                          # $ % ",
"                                                                                  & * = - ; #   ",
"                                                                            > * , ' ) ! ; ~     ",
"                                                                        { ] ^ ) / ( _ : < [     ",
"                                                                    } | 1 ) 2 3 4 4 5 6 7 8     ",
"                                                                  9 ^ 0 2 3 ( 4 a b c d e       ",
"                                                              f g h 2 i ( 4 4 a b j k ' [       ",
"                                                            l 1 m n o ( 4 4 4 p q r s , t       ",
"                                                        8 g h u n o o 4 v w x y v k ' |         ",
"                                                      z A ) n n o ( ( 4 B C v v r / g 8         ",
"                                                    D A E ; e ( w w 4 w F G v H / I |           ",
"                                                J K L M n : N @ O P C Q x v v k R , S           ",
"                                              & T U V i 4 B W X W Y Z v v v r / `  .            ",
"                                            ..+.T V 3 4 @.Q #.W $.N y v v r / ' %.>             ",
"                                          &.*.=.-.3 ( 4 r W ;.>.C r v v v k ,.'.*               ",
"                                        ).!.=.~.u ( 4 4 B {.W ].P q ^.r ^.d g /.                ",
"                                      (.!._.g :.<.y 4 B P [.}.@ q q q ^.d |.'.{                 ",
"                                    (.!._.1.; P B Q P B @.P >.>.{.q q d h '.&.                  ",
"                                  2.*.3.4.5.$.6.W 7.;.6.8.>.9.0.a.q b.c.d. .                    ",
"                                e.*.f.0 e g.G #.>.h.i.W >.X j.7.q b.R d.k.l.                    ",
"                              &.+.3.m.n.o.0.p.q.O r.W s.W s.Y P q ,.'.K &                       ",
"                            &.T ` M B N >.t.p.u.p.@ v.r.w.w.x.5 R y.d.z.                        ",
"                          z.f.A.2 H B.8.W j.C.>.D.W p.9.E.r.y ,.d.K F.                          ",
"                        & ` 1 3 H q G.w.H.j.p.s.h.I.j.6.#.j J.K.K 9                             ",
"                      > ` 1 s H ^.q L.6.w.w.M.}.G.N.$.p.g.O.K.P.Q.                              ",
"                      %.^ s k ^.^.R.7.S.T.v.G U.L.W j.6 V.W.P.X.                                ",
"                    ] m.! r q U.U.}.G.E.W t.U.Y.Z.`.r. +K..+X.++                                ",
"                  * m./ Q L.U.U.U.U.>.v.Y Y @+Y.Z.#+<.$+%+&+++                                  ",
"                f m.- o.T.*+[.U.Y.D.7.N.=+u.@+@+#+-+g ;+&+++                                    ",
"              >+, -+N h.t.0.Y W ,+'+h.v.N.,+,+#+-+)+D ;+++                                      ",
"              !+~ y 8.~+Y {+u.]+j.`.j.u.u.^+#+/+7 D &+++                                        ",
"            F.^ (+G.j.=+N.w.v.h.i.N.]+u._+:+(+7 ] D {                                           ",
"          & , -+Z.<+Y ~+I.h.@ u.N.[+~+Y {+(+7 }+D l.                                            ",
"          !+_ #+@+@+G >.|+D.W D.j.j.=+q.5 1+}+] l.                                              ",
"        z , -+2+2+#+2+0.0.h.;.w.3+w.'+Z 1+}+ .l.                                                ",
"      >+e I 4+2+2+2+[.w.h.H.S.~+v.[+5+j 6+7+                                                    ",
"      [ - (+4+2+2+8+Y C.h.Y C.E.u.j e 6+.                                                       ",
"    } %.a 4+8+8+9+0+a+8+b+c+~+`.j d+}+e+                                                        ",
"    [ - R.f+f+_+g+`.h+h+h+t.N.Q i+[                                                             ",
"    = B.R.f+j+k+<+l+m+l+n+{.e o+.                                                               ",
"  . p+a h+^+9+0+m+b+l+n+q+i+< &                                                                 ",
"  !+r+l+t.9+m+b+b+_+{.c 6+7+                                                                    ",
">+O.{.^+9+D.b+_+_+q+i+l 8                                                                       ",
">+= #.Y t._+{.q+j ~ .                                                                           ",
"  s+Q :+`.c i+< .                                                                               ",
"% n.s+i+!+[ f                                                                                   ",
"g.+                                                                                             "};
