<?xml version="1.0" encoding="UTF-8" standalone="no"?>
<!-- Created with Inkscape (http://www.inkscape.org/) -->

<svg
   xmlns:dc="http://purl.org/dc/elements/1.1/"
   xmlns:cc="http://creativecommons.org/ns#"
   xmlns:rdf="http://www.w3.org/1999/02/22-rdf-syntax-ns#"
   xmlns:svg="http://www.w3.org/2000/svg"
   xmlns="http://www.w3.org/2000/svg"
   xmlns:xlink="http://www.w3.org/1999/xlink"
   xmlns:sodipodi="http://sodipodi.sourceforge.net/DTD/sodipodi-0.dtd"
   xmlns:inkscape="http://www.inkscape.org/namespaces/inkscape"
   width="744.09448"
   height="1052.3622"
   id="svg2"
   version="1.1"
   inkscape:version="0.47 r22583"
   sodipodi:docname="drawing.svg"
   style="display:inline">
  <defs
     id="defs4">
    <linearGradient
       inkscape:collect="always"
       id="linearGradient4532">
      <stop
         style="stop-color:#fcfdfd;stop-opacity:1;"
         offset="0"
         id="stop4534" />
      <stop
         style="stop-color:#fcfdfd;stop-opacity:0;"
         offset="1"
         id="stop4536" />
    </linearGradient>
    <linearGradient
       inkscape:collect="always"
       id="linearGradient6687">
      <stop
         style="stop-color:#a8e3ec;stop-opacity:1;"
         offset="0"
         id="stop6689" />
      <stop
         style="stop-color:#a8e3ec;stop-opacity:0;"
         offset="1"
         id="stop6691" />
    </linearGradient>
    <linearGradient
       inkscape:collect="always"
       id="linearGradient6466">
      <stop
         style="stop-color:#000000;stop-opacity:1;"
         offset="0"
         id="stop6468" />
      <stop
         style="stop-color:#000000;stop-opacity:0;"
         offset="1"
         id="stop6470" />
    </linearGradient>
    <linearGradient
       id="linearGradient6370">
      <stop
         style="stop-color:#1641ce;stop-opacity:0.49803922;"
         offset="0"
         id="stop6374" />
      <stop
         id="stop6376"
         offset="1"
         style="stop-color:#809dd0;stop-opacity:0;" />
    </linearGradient>
    <linearGradient
       id="linearGradient6360">
      <stop
         style="stop-color:#d771df;stop-opacity:1;"
         offset="0"
         id="stop6362" />
      <stop
         id="stop6368"
         offset="0.5"
         style="stop-color:#a485df;stop-opacity:0.49803922;" />
      <stop
         style="stop-color:#809dd0;stop-opacity:0;"
         offset="1"
         id="stop6364" />
    </linearGradient>
    <inkscape:perspective
       sodipodi:type="inkscape:persp3d"
       inkscape:vp_x="0 : 526.18109 : 1"
       inkscape:vp_y="0 : 1000 : 0"
       inkscape:vp_z="744.09448 : 526.18109 : 1"
       inkscape:persp3d-origin="372.04724 : 350.78739 : 1"
       id="perspective10" />
    <clipPath
       id="clipPath3151"
       clipPathUnits="userSpaceOnUse">
      <path
         id="path3153"
         d="m 1392.5,5388.34 3472.5,0 0,-2740.01 -3472.5,0 0,2740.01 z" />
    </clipPath>
    <clipPath
       id="clipPath2897"
       clipPathUnits="userSpaceOnUse">
      <path
         id="path2899"
         d="m 810,5640 4480,0 0,-3360.83 -4480,0 0,3360.83 z" />
    </clipPath>
    <inkscape:perspective
       id="perspective2887"
       inkscape:persp3d-origin="0.5 : 0.33333333 : 1"
       inkscape:vp_z="1 : 0.5 : 1"
       inkscape:vp_y="0 : 1000 : 0"
       inkscape:vp_x="0 : 0.5 : 1"
       sodipodi:type="inkscape:persp3d" />
    <clipPath
       id="clipPath3712"
       clipPathUnits="userSpaceOnUse">
      <path
         id="path3714"
         d="m 1971.67,4368.33 2275.83,0 0,-766.66 -2275.83,0 0,766.66 z" />
    </clipPath>
    <clipPath
       id="clipPath3588"
       clipPathUnits="userSpaceOnUse">
      <path
         id="path3590"
         d="m 1590,4440 2935.83,0 0,-959.17 -2935.83,0 0,959.17 z" />
    </clipPath>
    <inkscape:perspective
       id="perspective3578"
       inkscape:persp3d-origin="0.5 : 0.33333333 : 1"
       inkscape:vp_z="1 : 0.5 : 1"
       inkscape:vp_y="0 : 1000 : 0"
       inkscape:vp_x="0 : 0.5 : 1"
       sodipodi:type="inkscape:persp3d" />
    <linearGradient
       inkscape:collect="always"
       xlink:href="#linearGradient6466"
       id="linearGradient6480"
       x1="478.69641"
       y1="743.76147"
       x2="482.30481"
       y2="724.40601"
       gradientUnits="userSpaceOnUse" />
    <filter
       inkscape:collect="always"
       id="filter6588"
       color-interpolation-filters="sRGB">
      <feGaussianBlur
         inkscape:collect="always"
         stdDeviation="0.46225782"
         id="feGaussianBlur6590" />
    </filter>
    <radialGradient
       inkscape:collect="always"
       xlink:href="#linearGradient6687"
       id="radialGradient6697"
       cx="353.58258"
       cy="450.62424"
       fx="353.58258"
       fy="450.62424"
       r="134.96306"
       gradientTransform="matrix(1,0,0,0.64781806,0,158.70172)"
       gradientUnits="userSpaceOnUse" />
    <filter
       inkscape:collect="always"
       id="filter6735"
       x="-0.35317693"
       width="1.7063539"
       y="-0.14601273"
       height="1.2920255">
      <feGaussianBlur
         inkscape:collect="always"
         stdDeviation="13.065326"
         id="feGaussianBlur6737" />
    </filter>
    <filter
       inkscape:collect="always"
       id="filter3742">
      <feGaussianBlur
         inkscape:collect="always"
         stdDeviation="1.2722565"
         id="feGaussianBlur3744" />
    </filter>
    <filter
       inkscape:collect="always"
       id="filter4528">
      <feGaussianBlur
         inkscape:collect="always"
         stdDeviation="0.55687215"
         id="feGaussianBlur4530" />
    </filter>
    <radialGradient
       inkscape:collect="always"
       xlink:href="#linearGradient4532"
       id="radialGradient4538"
       cx="322.00461"
       cy="736.21887"
       fx="322.00461"
       fy="736.21887"
       r="23.482933"
       gradientTransform="matrix(1,0,0,0.72055295,0,205.73419)"
       gradientUnits="userSpaceOnUse" />
    <filter
       inkscape:collect="always"
       id="filter4540">
      <feGaussianBlur
         inkscape:collect="always"
         stdDeviation="2.6865916"
         id="feGaussianBlur4542" />
    </filter>
    <clipPath
       clipPathUnits="userSpaceOnUse"
       id="clipPath4642">
      <g
         id="g4644"
         style="fill:none;stroke:#fefaf9;stroke-width:0.43745348;stroke-miterlimit:4;stroke-opacity:1;stroke-dasharray:none;display:inline"
         inkscape:export-filename="/Users/beskow/hack/wavesurfer/path6566.png"
         inkscape:export-xdpi="90"
         inkscape:export-ydpi="90"
         transform="matrix(-0.0930783,-0.67493269,3.2046448,3.1301698,-2003.7039,-1342.0495)">
        <path
           sodipodi:nodetypes="cssssz"
           id="path4646"
           d="m 128.35559,756.99017 c 0,0 -1.28773,-3.57906 3.01522,-13.81859 3.87918,-9.2311 39.80517,-22.21023 84.64716,-25.3028 43.17214,-2.97741 69.44499,-4.78906 120.2061,4.99573 26.34212,5.07775 55.82076,15.35983 68.62148,23.16564 11.24153,6.85502 9.93972,11.40446 9.93972,11.40446"
           style="fill:none;stroke:#fefaf9;stroke-width:0.43745348;stroke-linecap:butt;stroke-linejoin:miter;stroke-miterlimit:4;stroke-opacity:1;stroke-dasharray:none" />
        <use
           height="1052.3622"
           width="744.09448"
           transform="matrix(1,0,0,-1,0,1514.1572)"
           id="use4648"
           xlink:href="#path6486"
           y="0"
           x="0"
           style="fill:none;stroke:#fefaf9;stroke-width:0.43745348;stroke-miterlimit:4;stroke-opacity:1;stroke-dasharray:none" />
      </g>
    </clipPath>
    <clipPath
       clipPathUnits="userSpaceOnUse"
       id="clipPath4650">
      <g
         id="g4652"
         style="fill:none;stroke:#fefaf9;stroke-width:0.43745348;stroke-miterlimit:4;stroke-opacity:1;stroke-dasharray:none;display:inline"
         inkscape:export-filename="/Users/beskow/hack/wavesurfer/path6566.png"
         inkscape:export-xdpi="90"
         inkscape:export-ydpi="90"
         transform="matrix(1.9594683,-1.616416,1.9594683,1.616416,-1629.8139,-475.23623)">
        <path
           sodipodi:nodetypes="cssssz"
           id="path4654"
           d="m 128.35559,756.99017 c 0,0 -1.28773,-3.57906 3.01522,-13.81859 3.87918,-9.2311 39.80517,-22.21023 84.64716,-25.3028 43.17214,-2.97741 69.44499,-4.78906 120.2061,4.99573 26.34212,5.07775 55.82076,15.35983 68.62148,23.16564 11.24153,6.85502 9.93972,11.40446 9.93972,11.40446"
           style="fill:none;stroke:#fefaf9;stroke-width:0.43745348;stroke-linecap:butt;stroke-linejoin:miter;stroke-miterlimit:4;stroke-opacity:1;stroke-dasharray:none" />
        <use
           height="1052.3622"
           width="744.09448"
           transform="matrix(1,0,0,-1,0,1514.1572)"
           id="use4656"
           xlink:href="#path6486"
           y="0"
           x="0"
           style="fill:none;stroke:#fefaf9;stroke-width:0.43745348;stroke-miterlimit:4;stroke-opacity:1;stroke-dasharray:none" />
      </g>
    </clipPath>
    <clipPath
       clipPathUnits="userSpaceOnUse"
       id="clipPath4658">
      <g
         id="g4660"
         style="fill:none;stroke:#fefaf9;stroke-width:0.43745348;stroke-miterlimit:4;stroke-opacity:1;stroke-dasharray:none;display:inline"
         inkscape:export-filename="/Users/beskow/hack/wavesurfer/path6566.png"
         inkscape:export-xdpi="90"
         inkscape:export-ydpi="90"
         transform="matrix(1.1022329,0,0,1.4293516,-2.8385593,-612.89832)">
        <path
           sodipodi:nodetypes="cssssz"
           id="path4662"
           d="m 128.35559,756.99017 c 0,0 -1.28773,-3.57906 3.01522,-13.81859 3.87918,-9.2311 39.80517,-22.21023 84.64716,-25.3028 43.17214,-2.97741 69.44499,-4.78906 120.2061,4.99573 26.34212,5.07775 55.82076,15.35983 68.62148,23.16564 11.24153,6.85502 9.93972,11.40446 9.93972,11.40446"
           style="fill:none;stroke:#fefaf9;stroke-width:0.43745348;stroke-linecap:butt;stroke-linejoin:miter;stroke-miterlimit:4;stroke-opacity:1;stroke-dasharray:none" />
        <use
           height="1052.3622"
           width="744.09448"
           transform="matrix(1,0,0,-1,0,1514.1572)"
           id="use4664"
           xlink:href="#path6486"
           y="0"
           x="0"
           style="fill:none;stroke:#fefaf9;stroke-width:0.43745348;stroke-miterlimit:4;stroke-opacity:1;stroke-dasharray:none" />
      </g>
    </clipPath>
    <clipPath
       clipPathUnits="userSpaceOnUse"
       id="clipPath4666">
      <g
         id="g4668"
         style="fill:none;stroke:#fefaf9;stroke-width:0.43745348;stroke-miterlimit:4;stroke-opacity:1;stroke-dasharray:none;display:inline"
         inkscape:export-filename="/Users/beskow/hack/wavesurfer/path6566.png"
         inkscape:export-xdpi="90"
         inkscape:export-ydpi="90"
         transform="matrix(0.7449359,-0.10487592,-0.06185055,1.2631382,202.88993,-472.22385)">
        <path
           sodipodi:nodetypes="cssssz"
           id="path4670"
           d="m 128.35559,756.99017 c 0,0 -1.28773,-3.57906 3.01522,-13.81859 3.87918,-9.2311 39.80517,-22.21023 84.64716,-25.3028 43.17214,-2.97741 69.44499,-4.78906 120.2061,4.99573 26.34212,5.07775 55.82076,15.35983 68.62148,23.16564 11.24153,6.85502 9.93972,11.40446 9.93972,11.40446"
           style="fill:none;stroke:#fefaf9;stroke-width:0.43745348;stroke-linecap:butt;stroke-linejoin:miter;stroke-miterlimit:4;stroke-opacity:1;stroke-dasharray:none" />
        <use
           height="1052.3622"
           width="744.09448"
           transform="matrix(1,0,0,-1,0,1514.1572)"
           id="use4672"
           xlink:href="#path6486"
           y="0"
           x="0"
           style="fill:none;stroke:#fefaf9;stroke-width:0.43745348;stroke-miterlimit:4;stroke-opacity:1;stroke-dasharray:none" />
      </g>
    </clipPath>
    <clipPath
       clipPathUnits="userSpaceOnUse"
       id="clipPath4674">
      <g
         id="g4676"
         style="fill:none;stroke:#fefaf9;stroke-width:0.43745348;stroke-miterlimit:4;stroke-opacity:1;stroke-dasharray:none;display:inline"
         inkscape:export-filename="/Users/beskow/hack/wavesurfer/path6566.png"
         inkscape:export-xdpi="90"
         inkscape:export-ydpi="90"
         transform="matrix(1.616416,-1.616416,1.616416,1.616416,-1467.5541,-796.51172)">
        <path
           sodipodi:nodetypes="cssssz"
           id="path4678"
           d="m 128.35559,756.99017 c 0,0 -1.28773,-3.57906 3.01522,-13.81859 3.87918,-9.2311 39.80517,-22.21023 84.64716,-25.3028 43.17214,-2.97741 69.44499,-4.78906 120.2061,4.99573 26.34212,5.07775 55.82076,15.35983 68.62148,23.16564 11.24153,6.85502 9.93972,11.40446 9.93972,11.40446"
           style="fill:none;stroke:#fefaf9;stroke-width:0.43745348;stroke-linecap:butt;stroke-linejoin:miter;stroke-miterlimit:4;stroke-opacity:1;stroke-dasharray:none" />
        <use
           height="1052.3622"
           width="744.09448"
           transform="matrix(1,0,0,-1,0,1514.1572)"
           id="use4680"
           xlink:href="#path6486"
           y="0"
           x="0"
           style="fill:none;stroke:#fefaf9;stroke-width:0.43745348;stroke-miterlimit:4;stroke-opacity:1;stroke-dasharray:none" />
      </g>
    </clipPath>
    <clipPath
       clipPathUnits="userSpaceOnUse"
       id="clipPath4682">
      <g
         id="g4684"
         style="fill:none;stroke:#fefaf9;stroke-width:0.43745348;stroke-miterlimit:4;stroke-opacity:1;stroke-dasharray:none;display:inline"
         inkscape:export-filename="/Users/beskow/hack/wavesurfer/path6566.png"
         inkscape:export-xdpi="90"
         inkscape:export-ydpi="90"
         transform="translate(0.25331041,-0.3874343)">
        <path
           sodipodi:nodetypes="cssssz"
           id="path4686"
           d="m 128.35559,756.99017 c 0,0 -1.28773,-3.57906 3.01522,-13.81859 3.87918,-9.2311 39.80517,-22.21023 84.64716,-25.3028 43.17214,-2.97741 69.44499,-4.78906 120.2061,4.99573 26.34212,5.07775 55.82076,15.35983 68.62148,23.16564 11.24153,6.85502 9.93972,11.40446 9.93972,11.40446"
           style="fill:none;stroke:#fefaf9;stroke-width:0.43745348;stroke-linecap:butt;stroke-linejoin:miter;stroke-miterlimit:4;stroke-opacity:1;stroke-dasharray:none" />
        <use
           height="1052.3622"
           width="744.09448"
           transform="matrix(1,0,0,-1,0,1514.1572)"
           id="use4688"
           xlink:href="#path6486"
           y="0"
           x="0"
           style="fill:none;stroke:#fefaf9;stroke-width:0.43745348;stroke-miterlimit:4;stroke-opacity:1;stroke-dasharray:none" />
      </g>
    </clipPath>
    <filter
       inkscape:collect="always"
       id="filter4778">
      <feGaussianBlur
         inkscape:collect="always"
         stdDeviation="4.3295689"
         id="feGaussianBlur4780" />
    </filter>
    <filter
       inkscape:collect="always"
       id="filter4782">
      <feGaussianBlur
         inkscape:collect="always"
         stdDeviation="9.8972103"
         id="feGaussianBlur4784" />
    </filter>
  </defs>
  <sodipodi:namedview
     id="base"
     pagecolor="#ffffff"
     bordercolor="#666666"
     borderopacity="1.0"
     inkscape:pageopacity="0.0"
     inkscape:pageshadow="2"
     inkscape:zoom="0.48256055"
     inkscape:cx="668.41328"
     inkscape:cy="996.5837"
     inkscape:document-units="px"
     inkscape:current-layer="layer4"
     showgrid="false"
     inkscape:window-width="1280"
     inkscape:window-height="778"
     inkscape:window-x="609"
     inkscape:window-y="29"
     inkscape:window-maximized="0"
     inkscape:snap-grids="false"
     inkscape:snap-to-guides="false" />
  <metadata
     id="metadata7">
    <rdf:RDF>
      <cc:Work
         rdf:about="">
        <dc:format>image/svg+xml</dc:format>
        <dc:type
           rdf:resource="http://purl.org/dc/dcmitype/StillImage" />
        <dc:title></dc:title>
      </cc:Work>
    </rdf:RDF>
  </metadata>
  <g
     inkscape:groupmode="layer"
     id="layer4"
     inkscape:label="board"
     style="display:inline">
    <g
       id="g6536"
       style="fill:#496879;fill-opacity:1;display:inline;stroke:#e18b7d;stroke-opacity:1;stroke-width:4.37453466000000013;stroke-miterlimit:4;stroke-dasharray:none;filter:url(#filter4778)"
       inkscape:export-filename="/Users/beskow/hack/wavesurfer/path6566.png"
       inkscape:export-xdpi="90"
       inkscape:export-ydpi="90"
       transform="matrix(1.616416,-1.616416,1.616416,1.616416,-1272.5431,-472.20052)"
       clip-path="url(#clipPath4682)">
      <path
         sodipodi:nodetypes="cssssz"
         id="path6486"
         d="m 128.35559,756.99017 c 0,0 -1.28773,-3.57906 3.01522,-13.81859 3.87918,-9.2311 39.80517,-22.21023 84.64716,-25.3028 43.17214,-2.97741 69.44499,-4.78906 120.2061,4.99573 26.34212,5.07775 55.82076,15.35983 68.62148,23.16564 11.24153,6.85502 9.93972,11.40446 9.93972,11.40446"
         style="fill:#496879;fill-opacity:1;stroke:#e18b7d;stroke-width:4.37453466;stroke-linecap:butt;stroke-linejoin:miter;stroke-opacity:1;stroke-miterlimit:4;stroke-dasharray:none" />
      <use
         height="1052.3622"
         width="744.09448"
         transform="matrix(1,0,0,-1,0,1514.1572)"
         id="use6488"
         xlink:href="#path6486"
         y="0"
         x="0"
         style="fill:#496879;fill-opacity:1;stroke:#e18b7d;stroke-opacity:1;stroke-width:4.37453466;stroke-miterlimit:4;stroke-dasharray:none" />
    </g>
    <path
       sodipodi:type="spiral"
       style="fill:none;stroke:#e63216;stroke-width:10;stroke-linecap:butt;stroke-linejoin:miter;stroke-miterlimit:4;stroke-opacity:1;stroke-dasharray:none;filter:url(#filter4782)"
       id="path3650"
       sodipodi:cx="-632.04504"
       sodipodi:cy="351.93195"
       sodipodi:expansion="1"
       sodipodi:revolution="3"
       sodipodi:radius="181.25037"
       sodipodi:argument="-17.381842"
       sodipodi:t0="0"
       d="m -632.04504,351.93195 c 0.93511,9.03936 -11.72354,5.72021 -15.02402,1.55421 -8.94412,-11.2896 0.65862,-26.69288 11.91558,-31.60225 20.13606,-8.78173 41.91337,5.9669 48.1805,25.38539 9.19726,28.49741 -11.27886,57.39585 -38.8552,64.75873 -36.75493,9.81355 -72.97863,-16.58315 -81.33697,-52.325 -10.51811,-44.97748 21.88162,-88.61098 65.79481,-97.91521 53.18476,-11.26866 104.2716,27.17635 114.49344,79.26461 12.04608,61.38422 -32.4687,119.94992 -92.73442,131.07168 -69.57915,12.84051 -135.64002,-37.75945 -147.64991,-106.20422 -13.64639,-77.7713 43.04911,-151.33841 119.67403,-164.22815 85.96158,-14.46033 167.04282,48.33798 180.80638,133.14383 15.28016,94.15057 -53.62626,182.75175 -146.61363,197.38462"
       transform="translate(194.79421,323.27549)"
       clip-path="url(#clipPath4674)"
       inkscape:export-filename="/Users/beskow/hack/wavesurfer/path6566.png"
       inkscape:export-xdpi="90"
       inkscape:export-ydpi="90" />
  </g>
  <g
     inkscape:label="shadow"
     inkscape:groupmode="layer"
     id="layer1"
     style="display:inline">
    <path
       transform="matrix(2.3663457,-2.0035239,1.3955526,1.1815785,-1093.8544,491.22815)"
       d="m 420.67261,450.62424 a 67.090027,47.403378 0 1 1 -134.18006,0 67.090027,47.403378 0 1 1 134.18006,0 z"
       sodipodi:ry="47.403378"
       sodipodi:rx="67.090027"
       sodipodi:cy="450.62424"
       sodipodi:cx="353.58258"
       id="path6564"
       style="fill:url(#radialGradient6697);fill-opacity:1;stroke:none;filter:url(#filter6735)"
       sodipodi:type="arc"
       inkscape:export-filename="/Users/beskow/hack/wavesurfer/path6566.png"
       inkscape:export-xdpi="90"
       inkscape:export-ydpi="90"
       clip-path="url(#clipPath4666)" />
  </g>
  <g
     inkscape:groupmode="layer"
     id="layer2"
     inkscape:label="wcurve"
     style="display:inline">
    <g
       transform="matrix(1.4664922,-1.4664922,1.1308736,1.1308736,-575.48664,215.71158)"
       style="fill:none;stroke:#070478;stroke-width:3.76561201999999984;stroke-miterlimit:4;stroke-opacity:1;stroke-dasharray:none;display:inline;filter:url(#filter3742);stroke-linejoin:round;stroke-linecap:round"
       id="g6518"
       inkscape:export-filename="/Users/beskow/hack/wavesurfer/path6566.png"
       inkscape:export-xdpi="90"
       inkscape:export-ydpi="90"
       clip-path="url(#clipPath4658)">
      <path
         style="fill:none;stroke:#070478;stroke-width:3.76561201999999984;stroke-linecap:round;stroke-linejoin:round;stroke-miterlimit:4;stroke-opacity:1;stroke-dasharray:none"
         d="m 138.21221,469.53377 c 13.02156,0 12.028,0 12.028,0"
         id="path6520"
         sodipodi:nodetypes="cc" />
      <g
         id="g6522"
         transform="matrix(0.125,0,0,-0.125,-98.69949,967.87892)"
         style="fill:none;stroke:#070478;stroke-width:30.12489615000000143;stroke-miterlimit:4;stroke-opacity:1;stroke-dasharray:none;stroke-linejoin:round;stroke-linecap:round">
        <g
           clip-path="url(#clipPath3712)"
           id="g6524"
           style="fill:none;stroke:#070478;stroke-width:30.12489615000000143;stroke-miterlimit:4;stroke-opacity:1;stroke-dasharray:none;stroke-linejoin:round;stroke-linecap:round">
          <path
             id="path6526"
             style="fill:none;stroke:#070478;stroke-width:30.12489615000000143;stroke-linecap:round;stroke-linejoin:round;stroke-miterlimit:4;stroke-opacity:1;stroke-dasharray:none"
             d="m 3580,4079.17 1.67,30 2.5,31.66 2.5,30.84 1.66,29.16 2.5,29.17 2.5,26.67 1.67,24.16 2.5,20.84 2.5,18.33 1.67,14.17 2.5,10.83 2.5,6.67 1.66,3.33 2.5,-0.83 2.5,-5 1.67,-9.17 2.5,-11.67 2.5,-15 1.67,-18.33 2.5,-20 2.5,-21.67 1.66,-22.5 2.5,-23.33 2.5,-22.5 1.67,-22.5 2.5,-21.67 2.5,-19.16 1.67,-16.67 2.5,-14.17 2.5,-10.83 1.66,-7.5 2.5,-2.5 2.5,0.83 1.67,5 2.5,9.17 2.5,11.67 1.67,15 2.5,17.5 2.5,20 1.66,20 2.5,21.66 2.5,21.67 1.67,20.83 2.5,20.84 2.5,18.33 1.67,17.5 2.5,15.83 2.5,12.5 1.66,10.84 2.5,7.5 2.5,5 1.67,2.5 2.5,0.83 2.5,-2.5 1.67,-4.17 2.5,-5.83 2.5,-7.5 1.66,-7.5 2.5,-8.33 2.5,-10 1.67,-11.67 2.5,-11.67 2.5,-13.33 1.67,-13.33 2.5,-13.34 2.5,-13.33 1.66,-13.33 2.5,-12.5 2.5,-11.67 1.67,-10.83 2.5,-10 2.5,-9.17 1.67,-7.5 2.5,-5.83 2.5,-4.17 1.66,-3.33 2.5,-1.67 2.5,0 1.67,1.67 2.5,2.5 2.5,4.16 1.67,4.17 2.5,5.83 2.5,6.67 1.66,6.67 2.5,6.66 2.5,7.5 1.67,6.67 2.5,6.67 2.5,5.83 1.67,5 2.5,4.17 2.5,3.33 1.66,1.67 2.5,0.83 2.5,-0.83 1.67,-1.67 2.5,-3.33 2.5,-4.17 1.67,-5.83 2.5,-6.67 2.5,-8.33 1.66,-9.17 2.5,-9.17 2.5,-10.83 1.67,-10.83 2.5,-10.84 2.5,-10.83 1.67,-10.83 2.5,-10.84 2.5,-10 1.66,-10 2.5,-9.16 2.5,-7.5 1.67,-7.5 2.5,-5.84 2.5,-4.16 1.67,-4.17 2.5,-2.5 2.5,-0.83 1.66,0 2.5,0.83 2.5,1.67 1.67,2.5 2.5,3.33 2.5,4.17 1.67,4.16 2.5,4.17 2.5,5 1.66,5 2.5,4.17 2.5,4.16 1.67,3.34 2.5,2.5 2.5,2.5 1.67,1.66 5,0 1.66,-1.66 2.5,-2.5 2.5,-3.34 1.67,-5 2.5,-5 2.5,-5.83 1.67,-7.5 2.5,-7.5 2.5,-7.5 1.66,-8.33 2.5,-9.17 2.5,-8.33 1.67,-9.17 2.5,-8.33 2.5,-8.34 1.67,-7.5 2.5,-7.5 2.5,-6.66 1.66,-6.67 2.5,-5 2.5,-5 1.67,-1.67 2.5,-0.83 2.5,0 1.67,0.83 2.5,2.5 2.5,2.5 1.66,2.5 2.5,4.17 2.5,4.17 1.67,5 2.5,5.83 2.5,5 1.67,5.83 2.5,5.84 2.5,5 1.66,5.83 2.5,5 2.5,4.17 1.67,4.16 2.5,2.5 2.5,2.5 1.67,2.5 2.5,0.84 2.5,0 1.66,-0.84 2.5,-1.66 2.5,-2.5 1.67,-3.34 2.5,-3.33 2.5,-5 1.67,-4.17 2.5,-5 2.5,-5.83 1.66,-5 2.5,-5 2.5,-5 1.67,-5 2.5,-4.17 2.5,-4.16 1.67,-3.34 2.5,-2.5 2.5,-2.5 1.66,-0.83 2.5,-0.83 2.5,0 1.67,0.83 2.5,0.83 2.5,1.67 1.67,2.5 2.5,3.33 2.5,3.34 1.66,4.16 2.5,4.17 2.5,4.17 1.67,4.16 2.5,4.17 2.5,4.17 1.67,3.33 2.5,3.33 2.5,3.34 1.66,3.33 2.5,1.67 2.5,1.66 1.67,1.67 2.5,0.83 2.5,0 1.67,-0.83 2.5,-0.83 2.5,-0.84 1.66,-2.5 2.5,-1.66 2.5,-3.34 1.67,-2.5 2.5,-3.33 2.5,-2.5 1.67,-3.33 2.5,-3.34 2.5,-3.33 1.66,-2.5 2.5,-2.5 2.5,-2.5 1.67,-2.5 2.5,-1.67 2.5,-1.66 1.67,-0.84 6.66,0 2.5,0.84 2.5,0.83 1.67,0.83 2.5,1.67 2.5,1.67 1.67,2.5 2.5,1.66 2.5,2.5 1.66,2.5 2.5,1.67 2.5,2.5 1.67,1.67 2.5,1.66 2.5,1.67 1.67,1.67 2.5,0.83 2.5,0.83 1.66,0.84 6.67,0 2.5,-0.84 2.5,-0.83 1.67,-0.83 2.5,-0.84 2.5,-0.83 1.66,-0.83 2.5,-1.67 2.5,-0.83 1.67,-1.67 2.5,-0.83 2.5,-0.84 1.67,-1.66 2.5,-0.84 2.5,0 1.66,-0.83 2.5,-0.83 9.17,0 1.67,0.83 2.5,0 2.5,0.83 1.66,0 2.5,0.84 2.5,0 1.67,0.83 5,0 1.67,0.83 2.5,0" />
          <path
             id="path6528"
             style="fill:none;stroke:#070478;stroke-width:30.12489615000000143;stroke-linecap:round;stroke-linejoin:round;stroke-miterlimit:4;stroke-opacity:1;stroke-dasharray:none"
             d="m 2915.83,3862.5 1.67,25.83 2.5,26.67 2.5,25.83 1.67,25.84 2.5,24.16 2.5,22.5 1.66,20.84 2.5,18.33 2.5,15.83 1.67,13.34 2.5,9.16 2.5,6.67 1.67,3.33 2.5,0 2.5,-3.33 1.66,-6.67 2.5,-9.16 2.5,-11.67 1.67,-14.17 2.5,-15.83 2.5,-17.5 1.67,-18.33 2.5,-18.34 2.5,-18.33 1.66,-18.33 2.5,-17.5 2.5,-15.84 1.67,-14.16 2.5,-11.67 2.5,-9.17 1.67,-6.66 2.5,-3.34 2.5,0 1.66,3.34 2.5,6.66 2.5,9.17 1.67,13.33 2.5,15.84 2.5,18.33 1.67,20.83 2.5,22.5 2.5,24.17 1.66,25.83 2.5,25.84 2.5,26.66 1.67,25.84 2.5,25 2.5,24.16 1.67,21.67 2.5,20 2.5,17.5 1.66,15 2.5,12.5 2.5,8.33 1.67,5 2.5,2.5 2.5,-1.66 1.67,-4.17 2.5,-7.5 2.5,-10 1.66,-12.5 2.5,-15 2.5,-15.83 1.67,-17.5 2.5,-19.17 2.5,-18.33 1.67,-18.34 2.5,-18.33 2.5,-16.67 1.66,-15.83 2.5,-13.33 2.5,-10.84 1.67,-8.33 2.5,-5 2.5,-18.33 1.67,-19.17 2.5,-15.83 2.5,-11.67 1.66,-7.5 2.5,-2.5 2.5,3.33 1.67,8.34 2.5,13.33 2.5,18.33 1.67,23.34 2.5,26.66 2.5,30.84 1.66,33.33 2.5,35 1.67,35 2.5,35.83 2.5,33.34 1.67,31.66 2.5,27.5 2.5,22.5 1.66,16.67 2.5,10 2.5,3.33 1.67,-5.83 2.5,-13.33 2.5,-23.34 1.67,-30 2.5,-36.66 2.5,-42.5 1.66,-47.5 2.5,-51.67 2.5,-54.17 1.67,-55.83 2.5,-56.67 2.5,-55.83 1.67,-53.33 2.5,-50 2.5,-46.67 1.66,-40 2.5,-35 2.5,-27.5 1.67,-20.83 2.5,-12.5 2.5,-4.17 1.67,4.17 2.5,12.5 2.5,20.83 1.66,27.5 2.5,35 2.5,40 1.67,46.67 2.5,50 2.5,53.33 1.67,55.83 2.5,56.67 2.5,55.83 1.66,54.17 2.5,51.67 2.5,47.5 1.67,42.5 2.5,36.66 2.5,30 1.67,23.34 2.5,15 2.5,6.66 1.66,-1.66 2.5,-9.17 2.5,-17.5 1.67,-25.83 2.5,-32.5 2.5,-38.34 1.67,-45 2.5,-49.16 2.5,-52.5 1.66,-55 2.5,-55.84 2.5,-55.83 1.67,-55 2.5,-52.5 2.5,-49.17 1.67,-45 2.5,-38.33 2.5,-32.5 1.66,-25.83 2.5,-17.5 2.5,-9.17 1.67,-1.67 2.5,6.67 2.5,15 1.67,23.33 2.5,30 2.5,36.67 1.66,42.5 2.5,47.5 2.5,51.67 1.67,54.16 2.5,55.84 2.5,56.66 1.67,55.84 2.5,53.33 2.5,50 1.66,46.67 2.5,40 2.5,35 1.67,27.5 2.5,20.83 2.5,12.5 1.67,3.33 2.5,-3.33 2.5,-12.5 1.66,-20.83 2.5,-27.5 2.5,-35 1.67,-40 2.5,-46.67 2.5,-50 1.67,-53.33 2.5,-55.84 2.5,-56.66 1.66,-55.84 2.5,-54.16 2.5,-51.67 1.67,-47.5 2.5,-42.5 2.5,-36.67 1.67,-30 2.5,-23.33 2.5,-13.33 1.66,-5.84 2.5,3.34 2.5,10 1.67,16.66 2.5,22.5 2.5,27.5 1.67,31.67 2.5,33.33 2.5,35.84 1.66,35 2.5,35 2.5,33.33 1.67,30.83 2.5,26.67 2.5,23.33 1.67,18.34 2.5,13.33 2.5,8.33 1.66,3.34 2.5,-2.5 2.5,-7.5 1.67,-11.67 2.5,-15.83 2.5,-19.17 1.67,-18.33 2.5,-4.17 2.5,-6.67 1.66,-10.83 2.5,-12.5 2.5,-14.17 1.67,-16.66 2.5,-16.67 2.5,-18.33 1.67,-19.17 2.5,-18.33 2.5,-17.5 1.66,-15.84 2.5,-15 2.5,-12.5 1.67,-10 2.5,-7.5 2.5,-4.16 1.67,-1.67 2.5,2.5 2.5,5.83 1.66,9.17 2.5,13.33 2.5,15.84 1.67,18.33 2.5,21.67 2.5,24.16 1.67,25.84 2.5,26.66 2.5,28.34 1.66,29.16 2.5,28.34 2.5,27.5 1.67,27.5 2.5,25 2.5,23.33 1.67,20.83 2.5,17.5 2.5,15 1.66,11.67 2.5,7.5 2.5,4.17 1.67,0.83 2.5,-2.5 2.5,-6.67 1.67,-10 2.5,-12.5 2.5,-15 1.66,-16.66 2.5,-19.17 2.5,-20 1.67,-20.83 2.5,-20.84 2.5,-20.83 1.67,-19.17 2.5,-17.5 2.5,-15.83 1.66,-14.17 2.5,-10 2.5,-7.5 1.67,-4.16 2.5,0 2.5,3.33 1.67,6.67 2.5,11.66 2.5,14.17 1.66,18.33 2.5,21.67 2.5,24.17 1.67,26.66 2.5,28.34 2.5,30" />
          <path
             id="path6530"
             style="fill:none;stroke:#070478;stroke-width:30.12489615000000143;stroke-linecap:round;stroke-linejoin:round;stroke-miterlimit:4;stroke-opacity:1;stroke-dasharray:none"
             d="m 2250.83,3980 2.5,2.5 2.5,3.33 1.67,3.34 2.5,2.5 2.5,3.33 1.67,2.5 2.5,2.5 2.5,2.5 1.66,1.67 2.5,1.66 2.5,0.84 1.67,0.83 5,0 1.67,-0.83 2.5,-0.84 2.5,-1.66 1.66,-2.5 2.5,-2.5 2.5,-2.5 1.67,-3.34 2.5,-3.33 2.5,-3.33 1.67,-3.34 2.5,-3.33 2.5,-3.33 1.66,-3.34 2.5,-2.5 2.5,-3.33 1.67,-2.5 2.5,-1.67 2.5,-1.66 1.67,-0.84 5,0 1.66,0.84 2.5,0.83 2.5,1.67 1.67,2.5 2.5,2.5 2.5,3.33 1.67,3.33 2.5,3.34 2.5,4.16 1.66,4.17 2.5,3.33 2.5,4.17 1.67,3.33 2.5,4.17 2.5,3.33 1.67,2.5 2.5,2.5 2.5,1.67 1.66,0.83 2.5,0.84 4.17,0 2.5,-1.67 2.5,-1.67 1.67,-2.5 2.5,-2.5 2.5,-3.33 1.66,-4.17 2.5,-4.16 2.5,-4.17 1.67,-4.17 2.5,-4.16 2.5,-5 1.67,-4.17 2.5,-4.17 2.5,-3.33 1.66,-3.33 2.5,-2.5 2.5,-2.5 1.67,-1.67 2.5,-0.83 4.17,0 2.5,1.66 2.5,1.67 1.66,2.5 2.5,2.5 2.5,3.33 1.67,4.17 2.5,5 2.5,4.17 1.67,5 2.5,5 2.5,5 1.66,5 2.5,4.16 2.5,4.17 1.67,4.17 2.5,3.33 2.5,2.5 1.67,1.67 2.5,1.66 4.16,0 2.5,-0.83 2.5,-1.67 1.67,-2.5 2.5,-3.33 2.5,-3.33 1.67,-5 2.5,-4.17 2.5,-5 1.66,-5.83 2.5,-5 2.5,-5.84 1.67,-5 2.5,-5 2.5,-5 1.67,-4.16 2.5,-4.17 2.5,-2.5 1.66,-2.5 2.5,-12.5 2.5,-14.17 1.67,-13.33 2.5,-10.83 2.5,-8.34 1.67,-5 2.5,0 2.5,4.17 1.66,8.33 2.5,15 2.5,19.17 1.67,24.17 2.5,29.16 2.5,32.5 1.67,36.67 2.5,38.33 2.5,39.17 1.66,40 2.5,38.33 2.5,36.67 1.67,32.5 2.5,27.5 2.5,21.67 1.67,15 2.5,6.66 2.5,-4.16 1.66,-23.34 2.5,-30 2.5,-36.66 1.67,-42.5 2.5,-47.5 2.5,-51.67 1.67,-54.17 2.5,-55.83 2.5,-56.67 1.66,-55.83 2.5,-53.33 2.5,-50 1.67,-46.67 2.5,-40 2.5,-35 1.67,-27.5 2.5,-20.83 2.5,-12.5 1.66,-4.17 2.5,4.17 2.5,12.5 1.67,20.83 2.5,27.5 2.5,35 1.67,40 2.5,46.67 2.5,50 1.66,53.33 2.5,55.83 2.5,56.67 1.67,55.83 2.5,54.17 2.5,51.67 1.67,47.5 2.5,42.5 2.5,36.66 1.66,30 2.5,23.34 2.5,15 1.67,6.66 2.5,-1.66 2.5,-9.17 1.67,-17.5 2.5,-25.83 2.5,-32.5 1.66,-38.34 2.5,-45 2.5,-49.16 1.67,-52.5 2.5,-55 2.5,-55.84 1.67,-55.83 2.5,-55 2.5,-52.5 1.66,-49.17 2.5,-45 2.5,-38.33 1.67,-32.5 2.5,-25.83 2.5,-17.5 1.67,-9.17 2.5,-1.67 2.5,6.67 1.66,15 2.5,23.33 2.5,30 1.67,36.67 2.5,42.5 2.5,47.5 1.67,51.67 2.5,54.16 2.5,55.84 1.66,56.66 2.5,55.84 2.5,53.33 1.67,50 2.5,46.67 2.5,40 1.67,35 2.5,27.5 2.5,20.83 1.66,12.5 2.5,3.33 2.5,-3.33 1.67,-12.5 2.5,-20.83 2.5,-27.5 1.67,-35 2.5,-40 2.5,-46.67 1.66,-50 2.5,-53.33 2.5,-55.84 1.67,-56.66 2.5,-55.84 2.5,-54.16 1.67,-51.67 2.5,-47.5 2.5,-42.5 1.66,-36.67 2.5,-30 2.5,-23.33 1.67,-13.33 2.5,-5.84 2.5,3.34 1.67,10 2.5,16.66 2.5,22.5 1.66,27.5 2.5,31.67 2.5,33.33 1.67,35.84 2.5,35 2.5,35 1.67,33.33 2.5,30.83 2.5,26.67 1.66,23.33 2.5,18.34 2.5,13.33 1.67,8.33 2.5,3.34 2.5,-2.5 1.67,-7.5 2.5,-11.67 2.5,-15.83 1.66,-19.17 2.5,-18.33 2.5,-5 1.67,-8.34 2.5,-10.83 2.5,-13.33 1.67,-15.84 2.5,-16.66 2.5,-18.34 1.66,-18.33 2.5,-18.33 2.5,-19.17 1.67,-17.5 2.5,-15.83 2.5,-15 1.67,-12.5 2.5,-10 2.5,-7.5 1.66,-4.17 2.5,-1.67 2.5,2.5 1.67,5 2.5,8.34 2.5,12.5 1.67,15 2.5,17.5 2.5,20 1.66,21.66 2.5,24.17 2.5,25" />
          <path
             id="path6532"
             style="fill:none;stroke:#070478;stroke-width:30.12489615000000143;stroke-linecap:round;stroke-linejoin:round;stroke-miterlimit:4;stroke-opacity:1;stroke-dasharray:none"
             d="m 1971.67,3985.83 8.33,0 2.5,0.84 6.67,0 1.66,0.83 20,0 2.5,-0.83 2.5,0 1.67,-0.84 2.5,0 2.5,-0.83 1.67,-0.83 2.5,0 2.5,-0.84 1.66,-0.83 2.5,0 2.5,-0.83 1.67,0 2.5,-0.84 10.83,0 2.5,0.84 2.5,0 1.67,0.83 2.5,0.83 2.5,0.84 1.67,0.83 2.5,0.83 2.5,1.67 1.66,0.83 2.5,0.84 2.5,0.83 1.67,0.83 2.5,0.84 2.5,0.83 1.67,0.83 2.5,0.84 9.16,0 1.67,-0.84 2.5,-0.83 2.5,-0.83 1.67,-0.84 2.5,-0.83 2.5,-1.67 1.66,-0.83 2.5,-1.67 2.5,-1.66 1.67,-1.67 2.5,-0.83 2.5,-1.67 1.67,-1.67 2.5,-0.83 2.5,-1.67 1.66,-0.83 2.5,0 2.5,-0.83 6.67,0 1.67,0.83 2.5,0.83 2.5,0.84 1.66,1.66 2.5,1.67 2.5,1.67 1.67,1.66 2.5,1.67 2.5,2.5 1.67,1.67 2.5,1.66 2.5,2.5 1.66,1.67 2.5,1.67 2.5,0.83 1.67,1.67 2.5,0.83 2.5,0.83 6.67,0 1.66,-0.83 2.5,-0.83 2.5,-1.67 1.67,-1.67 2.5,-1.66 2.5,-1.67 1.67,-2.5 2.5,-2.5 2.5,-2.5 1.66,-2.5 2.5,-2.5 2.5,-2.5 1.67,-1.67 2.5,-2.5 2.5,-1.66 1.67,-1.67 2.5,-0.83 2.5,-0.84 1.66,-0.83 5,0 1.67,0.83 2.5,0.84 2.5,1.66 1.67,1.67 2.5,2.5 2.5,2.5 1.66,2.5" />
        </g>
      </g>
      <path
         id="path6534"
         d="m 430.07056,469.53377 24.14146,0"
         style="fill:none;stroke:#070478;stroke-width:3.76561201999999984;stroke-linecap:round;stroke-linejoin:round;stroke-miterlimit:4;stroke-opacity:1;stroke-dasharray:none"
         sodipodi:nodetypes="cc" />
    </g>
  </g>
  <g
     inkscape:groupmode="layer"
     id="layer5"
     inkscape:label="flare"
     style="display:inline">
    <path
       sodipodi:type="arc"
       style="opacity:0.28555567999999998;fill:#fcfcfc;fill-opacity:1;stroke:none;display:inline;filter:url(#filter4540)"
       id="path3682"
       sodipodi:cx="357.46811"
       sodipodi:cy="154.02933"
       sodipodi:rx="349.17899"
       sodipodi:ry="199.9749"
       d="m 706.64709,154.02933 a 349.17899,199.9749 0 1 1 -698.3579665,0 349.17899,199.9749 0 1 1 698.3579665,0 z"
       transform="matrix(0.82492582,0,0,1,71.71566,2)"
       clip-path="url(#clipPath4650)"
       inkscape:export-filename="/Users/beskow/hack/wavesurfer/path6566.png"
       inkscape:export-xdpi="90"
       inkscape:export-ydpi="90" />
  </g>
  <g
     inkscape:groupmode="layer"
     id="layer3"
     inkscape:label="hilite"
     style="display:inline">
    <path
       sodipodi:type="arc"
       style="opacity:0.50222222;fill:url(#radialGradient4538);fill-opacity:1;fill-rule:evenodd;stroke:none;display:inline;filter:url(#filter4528)"
       id="path6566"
       sodipodi:cx="322.00461"
       sodipodi:cy="736.21887"
       sodipodi:rx="19.415522"
       sodipodi:ry="12.821571"
       d="m 341.42013,736.21887 a 19.415522,12.821571 0 1 1 -38.83104,0 19.415522,12.821571 0 1 1 38.83104,0 z"
       transform="matrix(3.2863494,-2.1205124,-2.8481415,2.6873638,1489.7645,-1115.5401)"
       inkscape:export-xdpi="90"
       inkscape:export-ydpi="90"
       clip-path="url(#clipPath4642)" />
  </g>
  <g
     inkscape:groupmode="layer"
     id="layer6"
     inkscape:label="clip"
     style="display:inline" />
</svg>
